REM DIRINDEX 1\8,1\2\11,1\3\12,1\3\14,1\5\15,1\5\16,1\6\17,1\6\18,1\4\19,1\4\20,1\4\21,1\4\22,1\7\23,1\7\24,1\7\25,1\2\9\26,1\2\9\27,1\2\10\28,1\2\10\29,1\2\10\30,1\2\10\31,1\2\10\32,1\3\13\33,1\3\13\34,1\3\13\35
REM DIRNAME cjc123,folder01,folder02,folder03,folder04,folder05,folder06,folder07,folder08,folder09,folder10,folder11,folder12,folder13,folder14,folder15,folder16,folder17,folder18,folder19,folder20,folder21,folder22,folder23,folder24,folder25,folder26,folder27,folder28,folder29,folder30,folder31,folder32,folder33,folder34
TITLE ""
FILE "127 127_例文UNIT1_SET5.mp3" MP3
  TRACK 01 AUDIO
    TITLE "22:cjc123_2820"
    INDEX 01 00:00:00
  TRACK 02 AUDIO
    TITLE "0:"
    INDEX 01 00:02:47
  TRACK 03 AUDIO
    TITLE "19:cjc123_2821"
    INDEX 01 00:03:27
  TRACK 04 AUDIO
    TITLE "0:"
    INDEX 01 00:06:31
  TRACK 05 AUDIO
    TITLE "20:cjc123_2822"
    INDEX 01 00:06:69
  TRACK 06 AUDIO
    TITLE "0:"
    INDEX 01 00:09:55
  TRACK 07 AUDIO
    TITLE "21:cjc123_2823"
    INDEX 01 00:10:06
  TRACK 08 AUDIO
    TITLE "0:"
    INDEX 01 00:13:12
  TRACK 09 AUDIO
    TITLE "19:cjc123_2824"
    INDEX 01 00:13:71
  TRACK 10 AUDIO
    TITLE "0:"
    INDEX 01 00:16:36
  TRACK 11 AUDIO
    TITLE "20:cjc123_2825"
    INDEX 01 00:17:06
  TRACK 12 AUDIO
    TITLE "0:"
    INDEX 01 00:19:28
  TRACK 13 AUDIO
    TITLE "21:cjc123_2826"
    INDEX 01 00:19:56
  TRACK 14 AUDIO
    TITLE "0:"
    INDEX 01 00:22:21
  TRACK 15 AUDIO
    TITLE "19:cjc123_2827"
    INDEX 01 00:23:10
  TRACK 16 AUDIO
    TITLE "0:"
    INDEX 01 00:25:70
  TRACK 17 AUDIO
    TITLE "20:cjc123_2828"
    INDEX 01 00:26:24
  TRACK 18 AUDIO
    TITLE "0:"
    INDEX 01 00:28:53
  TRACK 19 AUDIO
    TITLE "21:cjc123_2829"
    INDEX 01 00:29:07
  TRACK 20 AUDIO
    TITLE "0:"
    INDEX 01 00:31:67
  TRACK 21 AUDIO
    TITLE "19:cjc123_2830"
    INDEX 01 00:32:43
  TRACK 22 AUDIO
    TITLE "0:"
    INDEX 01 00:34:59
  TRACK 23 AUDIO
    TITLE "20:cjc123_2831"
    INDEX 01 00:35:14
  TRACK 24 AUDIO
    TITLE "0:"
    INDEX 01 00:37:65
  TRACK 25 AUDIO
    TITLE "21:cjc123_2832"
    INDEX 01 00:38:18
  TRACK 26 AUDIO
    TITLE "0:"
    INDEX 01 00:40:34
  TRACK 27 AUDIO
    TITLE "19:cjc123_2833"
    INDEX 01 00:41:00
  TRACK 28 AUDIO
    TITLE "0:"
    INDEX 01 00:43:70
  TRACK 29 AUDIO
    TITLE "20:cjc123_2834"
    INDEX 01 00:44:30
  TRACK 30 AUDIO
    TITLE "0:"
    INDEX 01 00:47:46
  TRACK 31 AUDIO
    TITLE "21:cjc123_2835"
    INDEX 01 00:47:74
  TRACK 32 AUDIO
    TITLE "0:"
    INDEX 01 00:50:68
  TRACK 33 AUDIO
    TITLE "19:cjc123_2836"
    INDEX 01 00:51:42
  TRACK 34 AUDIO
    TITLE "0:"
    INDEX 01 00:54:23
  TRACK 35 AUDIO
    TITLE "20:cjc123_2837"
    INDEX 01 00:54:64
  TRACK 36 AUDIO
    TITLE "0:"
    INDEX 01 00:57:29
  TRACK 37 AUDIO
    TITLE "21:cjc123_2838"
    INDEX 01 00:57:54
  TRACK 38 AUDIO
    TITLE "0:"
    INDEX 01 01:00:37
  TRACK 39 AUDIO
    TITLE "19:cjc123_2839"
    INDEX 01 01:01:11
  TRACK 40 AUDIO
    TITLE "0:"
    INDEX 01 01:04:11
  TRACK 41 AUDIO
    TITLE "20:cjc123_2840"
    INDEX 01 01:04:58
  TRACK 42 AUDIO
    TITLE "0:"
    INDEX 01 01:08:21
  TRACK 43 AUDIO
    TITLE "21:cjc123_2841"
    INDEX 01 01:08:48
  TRACK 44 AUDIO
    TITLE "0:"
    INDEX 01 01:11:47
  TRACK 45 AUDIO
    TITLE "19:cjc123_2842"
    INDEX 01 01:12:32
  TRACK 46 AUDIO
    TITLE "0:"
    INDEX 01 01:15:33
  TRACK 47 AUDIO
    TITLE "20:cjc123_2843"
    INDEX 01 01:15:64
  TRACK 48 AUDIO
    TITLE "0:"
    INDEX 01 01:18:41
  TRACK 49 AUDIO
    TITLE "21:cjc123_2844"
    INDEX 01 01:18:66
  TRACK 50 AUDIO
    TITLE "0:"
    INDEX 01 01:21:69
  TRACK 51 AUDIO
    TITLE "19:cjc123_2845"
    INDEX 01 01:22:37
  TRACK 52 AUDIO
    TITLE "0:"
    INDEX 01 01:25:62
  TRACK 53 AUDIO
    TITLE "20:cjc123_2846"
    INDEX 01 01:26:17
  TRACK 54 AUDIO
    TITLE "0:"
    INDEX 01 01:28:49
  TRACK 55 AUDIO
    TITLE "21:cjc123_2847"
    INDEX 01 01:29:01
  TRACK 56 AUDIO
    TITLE "0:"
    INDEX 01 01:32:27
  TRACK 57 AUDIO
    TITLE "19:cjc123_2848"
    INDEX 01 01:33:01
  TRACK 58 AUDIO
    TITLE "0:"
    INDEX 01 01:35:67
  TRACK 59 AUDIO
    TITLE "20:cjc123_2849"
    INDEX 01 01:36:31
  TRACK 60 AUDIO
    TITLE "0:"
    INDEX 01 01:39:25
  TRACK 61 AUDIO
    TITLE "21:cjc123_2850"
    INDEX 01 01:39:53
  TRACK 62 AUDIO
    TITLE "0:"
    INDEX 01 01:42:55
  TRACK 63 AUDIO
    TITLE "19:cjc123_2851"
    INDEX 01 01:43:25
  TRACK 64 AUDIO
    TITLE "0:"
    INDEX 01 01:47:05
  TRACK 65 AUDIO
    TITLE "20:cjc123_2852"
    INDEX 01 01:47:37
  TRACK 66 AUDIO
    TITLE "0:"
    INDEX 01 01:51:54
  TRACK 67 AUDIO
    TITLE "21:cjc123_2853"
    INDEX 01 01:52:04
  TRACK 68 AUDIO
    TITLE "0:"
    INDEX 01 01:55:58
  TRACK 69 AUDIO
    TITLE "19:cjc123_2854"
    INDEX 01 01:56:32
  TRACK 70 AUDIO
    TITLE "0:"
    INDEX 01 01:59:61
  TRACK 71 AUDIO
    TITLE "20:cjc123_2855"
    INDEX 01 02:00:20
  TRACK 72 AUDIO
    TITLE "0:"
    INDEX 01 02:03:32
  TRACK 73 AUDIO
    TITLE "21:cjc123_2856"
    INDEX 01 02:03:57
  TRACK 74 AUDIO
    TITLE "0:"
    INDEX 01 02:07:12
  TRACK 75 AUDIO
    TITLE "19:cjc123_2857"
    INDEX 01 02:07:71
  TRACK 76 AUDIO
    TITLE "0:"
    INDEX 01 02:10:67
  TRACK 77 AUDIO
    TITLE "20:cjc123_2858"
    INDEX 01 02:11:14
  TRACK 78 AUDIO
    TITLE "0:"
    INDEX 01 02:13:67
  TRACK 79 AUDIO
    TITLE "21:cjc123_2859"
    INDEX 01 02:14:22
  TRACK 80 AUDIO
    TITLE "0:"
    INDEX 01 02:17:18
  TRACK 81 AUDIO
    TITLE "19:cjc123_2860"
    INDEX 01 02:17:67
  TRACK 82 AUDIO
    TITLE "0:"
    INDEX 01 02:20:11
  TRACK 83 AUDIO
    TITLE "20:cjc123_2861"
    INDEX 01 02:20:54
  TRACK 84 AUDIO
    TITLE "0:"
    INDEX 01 02:23:56
  TRACK 85 AUDIO
    TITLE "21:cjc123_2862"
    INDEX 01 02:24:10
  TRACK 86 AUDIO
    TITLE "0:"
    INDEX 01 02:26:31
  TRACK 87 AUDIO
    TITLE "19:cjc123_2863"
    INDEX 01 02:27:13
  TRACK 88 AUDIO
    TITLE "0:"
    INDEX 01 02:30:29
  TRACK 89 AUDIO
    TITLE "20:cjc123_2864"
    INDEX 01 02:30:64
  TRACK 90 AUDIO
    TITLE "0:"
    INDEX 01 02:34:56
  TRACK 91 AUDIO
    TITLE "21:cjc123_2865"
    INDEX 01 02:35:06
  TRACK 92 AUDIO
    TITLE "0:"
    INDEX 01 02:38:24
